<svg width="5" height="17" viewBox="0 0 5 17" fill="none" xmlns="http://www.w3.org/2000/svg">
<path d="M0 2.11917C0 1.70005 0.124293 1.2903 0.357095 0.941838C0.59002 0.593375 0.920971 0.321733 1.30815 0.161311C1.69546 0.000890002 2.12148 -0.0410332 2.53258 0.0407187C2.94368 0.122471 3.32125 0.324321 3.61768 0.620626C3.91411 0.917054 4.11583 1.29462 4.19758 1.70572C4.27946 2.11682 4.23741 2.54297 4.07712 2.93015C3.9167 3.31733 3.64505 3.64841 3.29659 3.88121C2.948 4.11401 2.53838 4.2383 2.11914 4.2383C1.55809 4.23534 1.02085 4.01105 0.624052 3.61425C0.227253 3.21758 0.00308265 2.68033 0 2.11917ZM0.360914 5.26298H3.85406V17H0.360914V5.26298Z" fill="#667085"/>
</svg>
