<svg width="77" height="62" viewBox="0 0 77 62" fill="none" xmlns="http://www.w3.org/2000/svg">
<path d="M25.3641 21.3084C25.3641 21.1509 25.3641 18.8597 25.3641 18.8597H24.0026C24.0026 18.8597 24.0026 21.1153 24.0026 21.1865C24.0026 21.6031 23.6165 21.8825 22.9662 21.8825C22.2855 21.8825 21.9146 21.6132 21.9146 21.1814C21.9146 21.1103 21.9146 18.8597 21.9146 18.8597H20.5378C20.5378 18.8597 20.5378 20.9985 20.5378 21.1814C20.5378 22.3905 21.5285 22.9036 22.9103 22.9036C24.3887 22.9036 25.3641 22.3854 25.3641 21.3084Z" fill="#667085"/>
<path d="M29.9494 22.8477V21.786H27.5211V18.8597H26.1443V22.8477H29.9494Z" fill="#667085"/>
<path d="M34.0411 19.8606V18.8597H29.2808V19.8606H30.9624V22.8477H32.3544V19.8606H34.0411Z" fill="#667085"/>
<path d="M35.8714 22.8477V18.8597H34.4744V22.8477H35.8714Z" fill="#667085"/>
<path d="M42.2811 22.8477V18.8597H40.5588L39.4717 21.2526L38.4353 18.8597H36.6572V22.8477H37.9527V20.6937L38.8874 22.8477H40.0458L40.9907 20.6937V22.8477H42.2811Z" fill="#667085"/>
<path d="M44.4389 22.1111H46.593L46.9436 22.8477H48.4118L46.4 18.8597H44.759L42.6304 22.8477H44.068L44.4389 22.1111ZM46.1612 21.2169H44.886L45.389 20.2567L45.5414 19.891L45.6837 20.2517L46.1612 21.2169Z" fill="#667085"/>
<path d="M52.73 19.8606V18.8597H47.9699V19.8606H49.6515V22.8477H51.0436V19.8606H52.73Z" fill="#667085"/>
<path d="M57.3593 22.8477V21.8571H54.5001V21.3388H57.2425V20.3685H54.5001V19.8554H57.3242V18.8597H53.1588V22.8477H57.3593Z" fill="#667085"/>
<path d="M30.9206 24.9677H29.6048C29.6048 24.9677 28.7462 27.4774 28.7462 27.5383C28.7462 27.4774 27.9435 24.9677 27.9435 24.9677H26.516C26.516 24.9677 25.7183 27.4774 25.7183 27.5383C25.7183 27.4774 24.8547 24.9677 24.8547 24.9677H23.3763L24.87 28.9558H26.3585C26.3585 28.9558 27.1612 26.5731 27.1662 26.5071C27.1713 26.5731 27.9689 28.9558 27.9689 28.9558H29.4625L30.9206 24.9677Z" fill="#667085"/>
<path d="M32.721 28.9558V24.9677H31.3239V28.9558H32.721Z" fill="#667085"/>
<path d="M38.1553 28.9558V24.9677H36.8548V27.137L34.9395 24.9677H33.5068V28.9558H34.8175V26.7356L36.7938 28.9558H38.1553Z" fill="#667085"/>
<path d="M43.5978 28.9558V24.9677H42.2972V27.137L40.3819 24.9677H38.9493V28.9558H40.26V26.7356L42.2363 28.9558H43.5978Z" fill="#667085"/>
<path d="M48.5932 28.9558V27.9651H45.7331V27.4469H48.4764V26.4766H45.7331V25.9634H48.5577V24.9677H44.3918V28.9558H48.5932Z" fill="#667085"/>
<path d="M53.9638 26.1819C53.9638 25.8212 53.877 25.5621 53.6941 25.3741C53.4554 25.1201 53.0441 24.9677 52.4138 24.9677H49.2389V28.9558H50.5954V27.5486H51.8299L52.8209 28.9558H54.3347L53.1309 27.33C53.3996 27.2894 53.6186 27.1269 53.7602 26.9338C53.8873 26.756 53.9638 26.4918 53.9638 26.1819ZM52.6432 26.3089C52.6432 26.375 52.6328 26.4562 52.5967 26.5172C52.546 26.6188 52.4138 26.6595 52.1957 26.6595H50.6005V25.9329H52.1699C52.3838 25.9329 52.5264 25.9685 52.5967 26.1007C52.6328 26.1514 52.6432 26.2327 52.6432 26.3089Z" fill="#667085"/>
<path d="M25.9369 32.8793C25.9369 32.8141 25.9369 30.9306 25.9369 30.9306H25.4612C25.4612 30.9306 25.4612 32.8064 25.4612 32.8486C25.4612 33.3012 25.0354 33.5583 24.4216 33.5583C23.6966 33.5583 23.3398 33.2821 23.3398 32.8448C23.3398 32.8025 23.3398 30.9306 23.3398 30.9306H22.8603C22.8603 30.9306 22.8603 32.7566 22.8603 32.8294C22.8603 33.6274 23.4818 33.9802 24.4025 33.9802C25.3538 33.9802 25.9369 33.6043 25.9369 32.8793Z" fill="#667085"/>
<path d="M29.3499 33.9419V33.5008H27.2745V30.9306H26.7951V33.9419H29.3499Z" fill="#667085"/>
<path d="M32.0746 31.3679V30.9306H28.8752V31.3679H30.2332V33.9419H30.7166V31.3679H32.0746Z" fill="#667085"/>
<path d="M35.4841 31.7821C35.4841 31.5673 35.4381 31.41 35.3576 31.2834C35.2156 31.0724 34.9432 30.9306 34.4906 30.9306H32.5418V33.9419H33.0137V32.6721H34.387L35.2271 33.9419H35.7795L34.8703 32.5915C35.1005 32.5648 35.2808 32.4343 35.3767 32.2655C35.4458 32.1504 35.4841 31.9817 35.4841 31.7821ZM35.0084 31.8205C35.0084 31.9049 34.9893 32.0085 34.9548 32.0776C34.8934 32.1887 34.7514 32.2463 34.5213 32.2501H33.0175C33.0175 32.2425 33.0175 31.3602 33.0175 31.3602H34.433C34.7207 31.3602 34.8742 31.4292 34.9548 31.5597C34.9893 31.621 35.0084 31.7246 35.0084 31.8205Z" fill="#667085"/>
<path d="M36.8493 33.1977H38.7252L39.1088 33.9419H39.6229L38.096 30.9306H37.5321L35.9555 33.9419H36.458L36.8493 33.1977ZM38.5257 32.7719H37.0565L37.6663 31.6172L37.8007 31.3372L37.9349 31.6172L38.5257 32.7719Z" fill="#667085"/>
<path d="M44.4881 33.6542C44.607 33.5161 44.6608 33.3205 44.6608 33.1094C44.6608 32.91 44.6032 32.7105 44.4843 32.5877C44.3653 32.4727 44.1735 32.3768 43.9625 32.3576C44.0853 32.3384 44.1812 32.2617 44.2464 32.1811C44.35 32.0622 44.4113 31.8704 44.4113 31.6786C44.4113 31.4752 44.35 31.2911 44.2195 31.1645C44.0777 31.0226 43.836 30.9306 43.4984 30.9306H41.4728V33.9419H43.648C44.0546 33.9419 44.3385 33.8384 44.4881 33.6542ZM43.9165 31.7745C43.9165 31.9087 43.8743 32.0277 43.8014 32.0967C43.7285 32.1773 43.6057 32.2118 43.4753 32.2118H41.9408V31.3448H43.3871C43.5636 31.3448 43.6978 31.3793 43.7899 31.4638C43.8705 31.5404 43.9165 31.6517 43.9165 31.7745ZM44.0699 33.3626C43.974 33.4701 43.8091 33.5238 43.5674 33.5238H41.9408V32.63H43.579C43.8014 32.63 43.9549 32.676 44.047 32.7642C44.1313 32.8448 44.1659 32.9483 44.1659 33.0673C44.1659 33.19 44.139 33.2936 44.0699 33.3626Z" fill="#667085"/>
<path d="M48.1433 33.9419V33.5008H45.8033V32.6414H48.0512V32.2041H45.8033V31.3679H48.1164V30.9306H45.3352V33.9419H48.1433Z" fill="#667085"/>
<path d="M51.8909 33.0519C51.8909 32.5609 51.5654 32.3077 50.7635 32.2156C50.6289 32.1965 50.3373 32.1658 50.18 32.1466C49.4358 32.0583 49.2095 31.9586 49.2095 31.7016C49.2095 31.4523 49.4588 31.3103 50.2107 31.3103C50.7935 31.3103 51.0932 31.4254 51.243 31.6325C51.2854 31.6901 51.3081 31.7592 51.3195 31.8128H51.833C51.8186 31.7246 51.7834 31.6018 51.7297 31.5021C51.523 31.1454 51.0973 30.8883 50.2107 30.8883C49.1519 30.8845 48.7146 31.2682 48.7146 31.7438C48.7146 32.2194 49.056 32.4611 49.9422 32.5648C50.0957 32.5839 50.368 32.6146 50.5023 32.63C51.1893 32.7143 51.4042 32.8179 51.4042 33.1056C51.4042 33.3704 51.1583 33.5622 50.3718 33.5622C49.7274 33.5622 49.3821 33.447 49.244 33.2246C49.2018 33.1632 49.175 33.0673 49.1712 33.0021H48.6647C48.6763 33.1401 48.7146 33.2898 48.7837 33.4087C48.9832 33.7732 49.4512 33.9842 50.3565 33.9842C51.4383 33.9842 51.8909 33.635 51.8909 33.0519Z" fill="#667085"/>
<path d="M55.3309 31.3679V30.9306H52.1317V31.3679H53.4895V33.9419H53.9731V31.3679H55.3309Z" fill="#667085"/>
<path d="M21.5024 36.5593C21.5024 36.2524 21.441 36.0452 21.3374 35.888C21.1917 35.6616 20.9077 35.5427 20.4129 35.5427H18.5102V38.5541H18.9858V37.572C18.9858 37.572 20.3286 37.572 20.3938 37.572C20.8579 37.5682 21.1763 37.4608 21.3452 37.2153C21.4525 37.0657 21.5024 36.8508 21.5024 36.5593ZM21.019 36.5593C21.019 36.7127 21.0036 36.8278 20.9538 36.9046C20.8656 37.0464 20.6853 37.1347 20.3132 37.1347C20.2786 37.1347 18.9858 37.1347 18.9858 37.1347V35.9724H20.3286C20.6776 35.9724 20.8579 36.0529 20.9538 36.2102C20.9998 36.2792 21.019 36.4059 21.019 36.5593Z" fill="#667085"/>
<path d="M24.9746 38.5541V38.1129H22.6345V37.2536H24.8826V36.8163H22.6345V35.98H24.9478V35.5427H22.1665V38.5541H24.9746Z" fill="#667085"/>
<path d="M28.6341 36.3943C28.6341 36.1795 28.5881 36.0222 28.5075 35.8956C28.3655 35.6846 28.0932 35.5427 27.6405 35.5427H25.6918V38.5541H26.1636V37.2843H27.537L28.3771 38.5541H28.9295L28.0203 37.2037C28.2505 37.177 28.4308 37.0464 28.5267 36.8777C28.5957 36.7626 28.6341 36.5938 28.6341 36.3943ZM28.1584 36.4326C28.1584 36.5171 28.1392 36.6207 28.1047 36.6897C28.0433 36.8009 27.9013 36.8585 27.6712 36.8623H26.1674C26.1674 36.8547 26.1674 35.9724 26.1674 35.9724H27.583C27.8707 35.9724 28.0241 36.0414 28.1047 36.1718C28.1392 36.2332 28.1584 36.3368 28.1584 36.4326Z" fill="#667085"/>
<path d="M32.1906 35.98V35.5427H29.5129V38.5541H29.9886V37.2728H32.0909V36.824H29.9886V35.98H32.1906Z" fill="#667085"/>
<path d="M34.3739 35.489C33.7333 35.489 33.2921 35.6463 32.9775 35.9762C32.7128 36.2332 32.5977 36.59 32.5977 37.0388C32.5977 37.5298 32.7474 37.8981 33.0236 38.1475C33.319 38.4429 33.7716 38.5962 34.3739 38.5962C34.9954 38.5962 35.4787 38.4429 35.7665 38.1321C36.0158 37.8789 36.1462 37.5184 36.1462 37.035C36.1462 36.567 36.0349 36.2102 35.7703 35.957C35.4672 35.6425 35.0145 35.489 34.3739 35.489ZM34.3739 38.1667C33.9519 38.1667 33.6527 38.0746 33.4264 37.8905C33.1962 37.7025 33.085 37.4147 33.085 37.0464C33.085 36.7012 33.1808 36.4135 33.365 36.2409C33.576 36.0414 33.8982 35.9225 34.3701 35.9225C34.8572 35.9225 35.1603 36.0376 35.3866 36.237C35.5785 36.4059 35.6628 36.705 35.6628 37.0426C35.6628 37.384 35.5747 37.6756 35.379 37.852C35.1527 38.063 34.8343 38.1667 34.3739 38.1667Z" fill="#667085"/>
<path d="M39.7455 36.3943C39.7455 36.1795 39.6994 36.0222 39.6189 35.8956C39.4769 35.6846 39.2046 35.5427 38.752 35.5427H36.8032V38.5541H37.275V37.2843H38.6483L39.4885 38.5541H40.0408L39.1317 37.2037C39.3618 37.177 39.5421 37.0464 39.638 36.8777C39.7072 36.7626 39.7455 36.5938 39.7455 36.3943ZM39.2698 36.4326C39.2698 36.5171 39.2506 36.6207 39.2161 36.6897C39.1548 36.8009 39.0128 36.8585 38.7826 36.8623H37.2788C37.2788 36.8547 37.2788 35.9724 37.2788 35.9724H38.6944C38.9821 35.9724 39.1355 36.0414 39.2161 36.1718C39.2506 36.2332 39.2698 36.3368 39.2698 36.4326Z" fill="#667085"/>
<path d="M44.3339 38.5541V35.5427H43.7125L42.4734 38.0209L41.2573 35.5427H40.6244V38.5541H41.0809V36.237L42.2163 38.5541H42.715L43.8774 36.237V38.5541H44.3339Z" fill="#667085"/>
<path d="M45.6811 37.8099H47.557L47.9406 38.5541H48.4547L46.9278 35.5427H46.3639L44.7872 38.5541H45.2898L45.6811 37.8099ZM47.3575 37.384H45.8883L46.4981 36.2294L46.6325 35.9494L46.7667 36.2294L47.3575 37.384Z" fill="#667085"/>
<path d="M51.9105 38.5541V35.5427H51.4538V37.8827L49.4595 35.5427H48.9185V38.5541H49.3827V36.1987L51.3928 38.5541H51.9105Z" fill="#667085"/>
<path d="M56.049 37.4301H55.5499C55.5344 37.5682 55.4807 37.7063 55.3846 37.8099C55.1779 38.0516 54.8483 38.1551 54.342 38.1551C53.9162 38.1551 53.4595 38.0362 53.2404 37.7254C53.1257 37.5797 53.0524 37.3649 53.0524 37.0426C53.0524 36.7549 53.103 36.5401 53.2136 36.3943C53.3975 36.099 53.785 35.9455 54.3306 35.9455C54.8597 35.9455 55.1934 36.0912 55.3701 36.2946C55.4693 36.402 55.5272 36.5286 55.5458 36.6782H56.0449C56.0294 36.5094 55.9757 36.3099 55.861 36.1411C55.615 35.7767 55.1624 35.489 54.3337 35.489C53.5442 35.489 53.072 35.7422 52.8106 36.1219C52.6421 36.3406 52.5574 36.6475 52.5574 37.0388C52.5574 37.4761 52.6618 37.7984 52.8416 38.0247C53.103 38.3815 53.6052 38.5962 54.3647 38.5962C55.1438 38.5962 55.6078 38.3623 55.8382 37.9902C55.9684 37.8099 56.0335 37.595 56.049 37.4301Z" fill="#667085"/>
<path d="M59.4818 38.5541V38.1129H57.1413V37.2536H59.3898V36.8163H57.1413V35.98H59.4549V35.5427H56.6732V38.5541H59.4818Z" fill="#667085"/>
<path d="M24.3989 41.5456L24.9726 43.3113H26.8292L25.3272 44.4026L25.9009 46.1683L24.3989 45.0771L22.8968 46.1683L23.4706 44.4026L21.9686 43.3113H23.8252L24.3989 41.5456Z" fill="#667085"/>
<path d="M31.0221 41.5457L31.6075 43.3113H33.502L31.9694 44.4026L32.5548 46.1684L31.0221 45.0771L29.4895 46.1684L30.0749 44.4026L28.5422 43.3113H30.4367L31.0221 41.5457Z" fill="#667085"/>
<path d="M37.593 41.5457L38.1785 43.3113H40.0729L38.5402 44.4026L39.1257 46.1684L37.593 45.0771L36.0603 46.1684L36.6457 44.4026L35.1131 43.3113H37.0076L37.593 41.5457Z" fill="#667085"/>
<path d="M44.164 41.5457L44.7494 43.3113H46.6439L45.1113 44.4026L45.6967 46.1684L44.164 45.0771L42.6314 46.1684L43.2168 44.4026L41.6841 43.3113H43.5787L44.164 41.5457Z" fill="#667085"/>
<path d="M50.7873 41.5457L51.3608 43.3113H53.2177L51.7152 44.4026L52.2887 46.1684L50.7873 45.0771L49.2851 46.1684L49.859 44.4026L48.3569 43.3113H50.2135L50.7873 41.5457Z" fill="#667085"/>
<path d="M27.6169 11.7554L28.0507 13.0905H29.4544L28.3188 13.9156L28.7526 15.2506L27.6169 14.4255L26.4812 15.2506L26.915 13.9156L25.7794 13.0905H27.1832L27.6169 11.7554Z" fill="#667085"/>
<path d="M32.6247 11.7535L33.0674 13.0886H34.4997L33.3409 13.9137L33.7835 15.2487L32.6247 14.4236L31.4658 15.2487L31.9085 13.9137L30.7496 13.0886H32.182L32.6247 11.7535Z" fill="#667085"/>
<path d="M37.5928 11.7535L38.0353 13.0886H39.4678L38.309 13.9137L38.7515 15.2487L37.5928 14.4236L36.4339 15.2487L36.8766 13.9137L35.7177 13.0886H37.1501L37.5928 11.7535Z" fill="#667085"/>
<path d="M42.5615 11.7535L43.0041 13.0886H44.4365L43.2778 13.9137L43.7203 15.2487L42.5615 14.4236L41.4027 15.2487L41.8453 13.9137L40.6865 13.0886H42.1189L42.5615 11.7535Z" fill="#667085"/>
<path d="M47.5686 11.7535L48.0024 13.0886H49.4061L48.2705 13.9137L48.7043 15.2487L47.5686 14.4236L46.4329 15.2487L46.8667 13.9137L45.7311 13.0886H47.1348L47.5686 11.7535Z" fill="#667085"/>
<path fill-rule="evenodd" clip-rule="evenodd" d="M7.62228 35.7847C5.70793 23.8075 11.295 11.9574 22.4799 6.86867L22.5831 7.09559C11.5107 12.1331 5.96988 23.8672 7.86842 35.7454C9.96888 48.8866 20.5703 56.7678 33.5525 57.1478L33.5452 57.397C20.4618 57.0141 9.74433 49.0615 7.62228 35.7847Z" fill="#667085"/>
<path d="M20.0547 9.92537C17.9877 9.97249 15.5686 11.1381 14.1412 12.8311C15.2859 13.8941 17.1277 13.5011 18.4532 13.2837C20.3449 12.9735 22.3566 12.3725 24.1417 11.5218C23.4077 9.95937 21.4305 9.89406 20.0547 9.92537Z" fill="#667085"/>
<path d="M18.4292 7.37552C17.2049 9.28264 15.7458 11.1781 14.158 12.8472C12.8296 11.6002 13.6314 9.52496 14.1736 8.23443C15.1558 5.89599 17.5107 3.87944 19.9726 2.84766C20.6483 4.38495 19.1806 6.20496 18.4292 7.37552Z" fill="#667085"/>
<path d="M14.0734 15.2734C12.1379 15.9614 10.4748 17.8981 9.63976 19.8424C11.0315 20.4894 12.6136 19.555 13.771 18.9328C15.3603 18.0785 16.9817 16.8996 18.2574 15.5354C17.1048 14.3192 15.3545 14.8181 14.0734 15.2734Z" fill="#667085"/>
<path d="M11.7273 13.3677C11.3036 15.5429 10.5933 17.7974 9.66042 19.8523C8.0321 19.0843 8.0941 16.8848 8.16385 15.485C8.28289 13.0958 9.6195 10.3714 11.4804 8.63991C12.6197 9.86131 11.9972 11.9821 11.7273 13.3677Z" fill="#667085"/>
<path d="M10.3493 22.1779C8.73663 23.4502 7.75909 25.8079 7.53269 27.9133C9.0583 28.0885 10.2777 26.7001 11.1851 25.7476C12.4205 24.4506 13.5899 22.824 14.3325 21.1222C12.8782 20.3288 11.3998 21.3492 10.3493 22.1779Z" fill="#667085"/>
<path d="M7.55522 21.1039C7.84279 23.3004 7.84341 25.6768 7.55573 27.9162C5.7815 27.6983 5.19302 25.568 4.8454 24.2316C4.24524 21.9248 4.64762 18.945 5.81674 16.7025C7.27777 17.5113 7.37149 19.6999 7.55522 21.1039Z" fill="#667085"/>
<path d="M9.08372 29.7145C7.80756 31.5839 7.35878 34.5135 7.93269 36.8683C9.61909 36.469 10.4551 34.5597 11.1263 33.2113C12.0184 31.4192 12.7724 29.3285 13.0423 27.2772C11.2132 26.8965 9.92434 28.483 9.08372 29.7145Z" fill="#667085"/>
<path d="M5.73366 29.5255C6.72793 31.8275 7.50386 34.3611 7.95791 36.8626C6.02382 37.2781 4.63181 35.2472 3.82313 33.9006C2.38338 31.5034 1.96395 28.1803 2.49137 25.3126C4.26157 25.6676 5.12781 28.1233 5.73366 29.5255Z" fill="#667085"/>
<path d="M9.97642 37.848C9.29122 40.1158 9.76748 43.1987 11.1548 45.3307C12.6794 44.3381 12.8904 42.1534 13.1065 40.587C13.3914 38.5199 13.5255 36.23 13.1716 34.0866C11.2216 34.3355 10.4341 36.333 9.97642 37.848Z" fill="#667085"/>
<path d="M6.58771 38.8188C8.29849 40.7818 9.8766 43.02 11.1781 45.316C9.41294 46.418 7.34163 44.9125 6.0854 43.8471C3.85681 41.9573 2.40973 38.7451 2.06667 35.7169C3.92129 35.4676 5.55572 37.6345 6.58771 38.8188Z" fill="#667085"/>
<path d="M13.5719 45.5666C13.7189 48.2062 15.4375 50.9761 17.7257 52.5526C18.8307 51.0397 18.1381 48.7217 17.7611 47.1036C17.2537 44.925 16.5513 42.6564 15.5075 40.6435C13.6874 41.6053 13.4751 43.8282 13.5719 45.5666Z" fill="#667085"/>
<path d="M10.4943 47.7963C12.9734 49.1739 15.4453 50.7994 17.7437 52.5291C16.3673 54.3416 13.6161 53.6188 11.9107 53.0363C8.90537 52.0096 6.22604 49.3033 4.8266 46.2966C6.60093 45.3827 9.02989 46.9826 10.4943 47.7963Z" fill="#667085"/>
<path d="M20.6325 52.0153C22.1204 54.7307 25.511 56.5022 28.704 56.9286C29.0477 54.9545 26.9117 53 25.7478 51.7213C24.0906 49.9009 22.3638 48.0118 20.4278 46.4378C18.9773 48.1219 19.7441 50.3941 20.6325 52.0153Z" fill="#667085"/>
<path d="M18.5075 55.4567C21.8897 55.8084 25.3293 56.3146 28.7095 56.8983C28.3868 59.3891 24.4342 59.791 22.6398 59.9381C18.9606 60.2396 14.8678 58.7607 12.018 56.271C13.4334 54.6055 16.7059 55.2695 18.5075 55.4567Z" fill="#667085"/>
<path d="M25.0221 4.77813C22.7513 5.42593 20.0934 6.65487 18.7803 8.92345C21.1637 8.66367 23.5062 7.81562 25.797 7.16947C28.3629 6.44562 31.0648 5.90426 33.5491 4.90513C30.8284 3.81662 27.6211 4.03661 25.0221 4.77813Z" fill="#667085"/>
<path fill-rule="evenodd" clip-rule="evenodd" d="M68.9523 35.7454C70.8505 23.8672 65.3098 12.1333 54.2376 7.09559L54.3409 6.86867C65.5257 11.9575 71.113 23.8075 69.1982 35.7847C67.0768 49.0615 56.359 57.0141 43.2756 57.397L43.2684 57.1478C56.2505 56.7678 66.8515 48.8866 68.9523 35.7454Z" fill="#667085"/>
<path d="M56.7662 9.92537C58.8328 9.97249 61.2519 11.1381 62.6799 12.8311C61.535 13.8941 59.6926 13.5011 58.3678 13.2837C56.4758 12.9735 54.4639 12.3725 52.6793 11.5218C53.413 9.95937 55.3898 9.89406 56.7662 9.92537Z" fill="#667085"/>
<path d="M58.3916 7.37552C59.6161 9.28264 61.0752 11.1781 62.6624 12.8472C63.9912 11.6002 63.1894 9.52496 62.6469 8.23443C61.6652 5.89599 59.3102 3.87944 56.8478 2.84766C56.172 4.38495 57.6404 6.20496 58.3916 7.37552Z" fill="#667085"/>
<path d="M62.7481 15.2734C64.6836 15.9614 66.3462 17.8981 67.1811 19.8424C65.7892 20.4894 64.2072 19.555 63.0499 18.9328C61.4606 18.0785 59.8393 16.8996 58.5642 15.5354C59.7163 14.3192 61.4668 14.8181 62.7481 15.2734Z" fill="#667085"/>
<path d="M65.0938 13.3677C65.5175 15.5429 66.2274 17.7974 67.1605 19.8523C68.789 19.0843 68.727 16.8848 68.6567 15.485C68.5379 13.0958 67.2018 10.3714 65.3408 8.63991C64.201 9.86131 64.8241 11.9821 65.0938 13.3677Z" fill="#667085"/>
<path d="M66.4712 22.1779C68.0843 23.4502 69.0618 25.8079 69.2881 27.9133C67.7629 28.0885 66.5436 26.7001 65.6363 25.7476C64.4004 24.4506 63.2307 22.824 62.4888 21.1222C63.9427 20.3288 65.4214 21.3492 66.4712 22.1779Z" fill="#667085"/>
<path d="M69.2664 21.1039C68.9781 23.3002 68.9781 25.6768 69.2654 27.9162C71.0396 27.6983 71.6286 25.568 71.9758 24.2316C72.5762 21.9248 72.1732 18.945 71.0045 16.7025C69.5433 17.5113 69.4493 19.6999 69.2664 21.1039Z" fill="#667085"/>
<path d="M67.7371 29.7145C69.0132 31.5839 69.4617 34.5135 68.8882 36.8683C67.2018 36.469 66.3658 34.5598 65.6942 33.2113C64.8024 31.4192 64.0481 29.3285 63.7784 27.2772C65.6074 26.8965 66.897 28.483 67.7371 29.7145Z" fill="#667085"/>
<path d="M71.0871 29.5255C70.0931 31.8275 69.317 34.3611 68.8634 36.8626C70.7968 37.2781 72.1887 35.2472 72.9978 33.9006C74.4372 31.5034 74.8567 28.1803 74.3297 25.3126C72.5596 25.6676 71.6927 28.1233 71.0871 29.5255Z" fill="#667085"/>
<path d="M66.8443 37.848C67.5294 40.1158 67.054 43.1987 65.6663 45.3307C64.1421 44.3381 63.9303 42.1534 63.7143 40.587C63.4301 38.5199 63.2958 36.23 63.6492 34.0866C65.5991 34.3355 66.3865 36.333 66.8443 37.848Z" fill="#667085"/>
<path d="M70.2326 38.8188C68.5224 40.7819 66.9445 43.02 65.6425 45.316C67.4074 46.418 69.4793 44.9125 70.7358 43.8471C72.9637 41.9573 74.4114 38.7451 74.7544 35.7169C72.8996 35.4676 71.2649 37.6345 70.2326 38.8188Z" fill="#667085"/>
<path d="M63.2483 45.5666C63.1015 48.2062 61.3831 50.9761 59.0953 52.5526C57.9896 51.0397 58.683 48.7218 59.0591 47.1036C59.5665 44.925 60.2692 42.6564 61.3128 40.6435C63.1336 41.6053 63.3454 43.8282 63.2483 45.5666Z" fill="#667085"/>
<path d="M66.3266 47.7963C63.8476 49.1739 61.3759 50.7994 59.0777 52.5291C60.4541 54.3416 63.2049 53.6188 64.9099 53.0363C67.9158 52.0096 70.5953 49.3033 71.9944 46.2966C70.2202 45.3827 67.7908 46.9826 66.3266 47.7963Z" fill="#667085"/>
<path d="M56.1885 52.0153C54.7005 54.7307 51.3102 56.5022 48.1167 56.9286C47.7731 54.9545 49.909 53 51.0735 51.7213C52.73 49.9009 54.4567 48.0118 56.3931 46.4378C57.8439 48.1219 57.0762 50.3941 56.1885 52.0153Z" fill="#667085"/>
<path d="M58.3131 55.4567C54.931 55.8084 51.492 56.3146 48.1112 56.8983C48.434 59.3891 52.3869 59.791 54.1808 59.9381C57.8605 60.2396 61.9535 58.7607 64.8024 56.271C63.3878 54.6055 60.1152 55.2695 58.3131 55.4567Z" fill="#667085"/>
<path d="M51.7989 4.77813C54.0692 5.42593 56.7279 6.65487 58.0403 8.92345C55.6574 8.66367 53.3148 7.81562 51.0239 7.16947C48.458 6.44562 45.7561 5.90426 43.2718 4.90513C45.9926 3.81662 49.1998 4.03661 51.7989 4.77813Z" fill="#667085"/>
<path d="M39.8871 3.60416L38.722 1.03333L37.5788 3.55632L34.9202 1.90795L36.6286 5.49806H40.8772L42.5239 1.90795L39.8871 3.60416Z" fill="#667085"/>
<path d="M40.8499 6.05595H36.5946V6.68391H40.8499V6.05595Z" fill="#667085"/>
<path d="M39.0263 54.6342L39.712 56.7445H41.9309L40.1358 58.0486L40.8214 60.1589L39.0263 58.8547L37.2312 60.1589L37.9169 58.0486L36.1218 56.7445H38.3407L39.0263 54.6342Z" fill="#667085"/>
</svg>
