<svg width="10" height="13" viewBox="0 0 10 13" fill="none" xmlns="http://www.w3.org/2000/svg">
<path d="M9.99999 8.59566C9.99999 11.3155 7.65533 12.476 5.07616 12.476C4.04586 12.5673 3.01183 12.348 2.10716 11.8466C1.20262 11.3452 0.468659 10.5845 0 9.66247L3.07154 7.91571C3.19619 8.34215 3.46311 8.71311 3.82773 8.96687C4.19247 9.22062 4.63295 9.34204 5.07616 9.31076C5.93204 9.31076 6.35402 9.0411 6.35402 8.5722C6.35402 7.27088 0.492369 7.96263 0.492369 3.88288C0.492369 1.30371 2.6729 0.0023855 5.18168 0.0023855C6.10746 -0.0256719 7.02392 0.194197 7.8361 0.639516C8.64827 1.08471 9.32649 1.7391 9.80073 2.53464L6.71752 4.15253C6.58133 3.84291 6.35811 3.57946 6.07505 3.39423C5.792 3.20901 5.46139 3.10994 5.12309 3.10907C4.51352 3.10907 4.13834 3.34358 4.13834 3.77736C4.18527 5.12548 9.99999 4.2228 9.99999 8.59566Z" fill="#667085"/>
</svg>
