<svg width="13" height="13" viewBox="0 0 13 13" fill="none" xmlns="http://www.w3.org/2000/svg">
<path d="M0.000292456 6.512C-0.00211794 5.22598 0.377037 3.96806 1.08978 2.89756C1.80252 1.82706 2.81681 0.99206 4.0043 0.498251C5.19171 0.00444124 6.499 -0.126001 7.76065 0.123417C9.02231 0.372835 10.1816 0.990901 11.0918 1.89951C12.0021 2.80798 12.6223 3.96613 12.874 5.22727C13.1259 6.48841 12.9979 7.79596 12.5063 8.9844C12.0147 10.1727 11.1816 11.1886 10.1124 11.9033C9.04332 12.6182 7.78617 12.9996 6.50016 12.9996C5.64479 13.0094 4.79625 12.8484 4.00404 12.5259C3.21186 12.2035 2.49197 11.7262 1.88662 11.1219C1.28126 10.5178 0.802594 9.79878 0.478686 9.00708C0.154777 8.21552 -0.00786681 7.36724 0.000292456 6.512ZM9.32393 6.512C9.30962 5.95684 9.13187 5.41817 8.81298 4.96355C8.49408 4.5088 8.04822 4.15832 7.53108 3.95569C7.01394 3.75306 6.4486 3.70756 5.90581 3.8246C5.36289 3.94164 4.86663 4.21619 4.4789 4.61385C4.09131 5.0115 3.82951 5.51471 3.72632 6.06047C3.62313 6.6061 3.68317 7.17016 3.89886 7.68188C4.11464 8.19361 4.47645 8.63045 4.93907 8.93761C5.40181 9.24478 5.94473 9.40873 6.50016 9.40886C6.88002 9.41956 7.25808 9.35137 7.61036 9.20855C7.96264 9.06573 8.28153 8.85151 8.54693 8.57927C8.81221 8.30704 9.01831 7.98286 9.15198 7.6271C9.28578 7.27121 9.3443 6.89161 9.32393 6.512Z" fill="#667085"/>
</svg>
