<svg width="24" height="24" viewBox="0 0 24 24" fill="none" xmlns="http://www.w3.org/2000/svg">
<path d="M17 13L13 22C12.2044 22 11.4413 21.6839 10.8787 21.1213C10.3161 20.5587 10 19.7956 10 19V15H4.34C4.05009 15.0033 3.76294 14.9435 3.49843 14.8248C3.23392 14.7061 2.99839 14.5313 2.80814 14.3125C2.6179 14.0937 2.47749 13.8362 2.39666 13.5577C2.31583 13.2793 2.29649 12.9866 2.34 12.7L3.72 3.7C3.79232 3.22309 4.03457 2.78839 4.40209 2.47599C4.76962 2.1636 5.23767 1.99455 5.72 2H17M17 13V2M17 13H20C20.5304 13 21.0391 12.7893 21.4142 12.4142C21.7893 12.0391 22 11.5304 22 11V4C22 3.46957 21.7893 2.96086 21.4142 2.58579C21.0391 2.21071 20.5304 2 20 2H17" stroke="#9B8AFB" stroke-width="2" stroke-linecap="round" stroke-linejoin="round"/>
</svg>
