<svg width="13" height="13" viewBox="0 0 13 13" fill="none" xmlns="http://www.w3.org/2000/svg">
<path d="M0.000298761 6.512C-0.00215031 5.22598 0.377068 3.96806 1.08975 2.89756C1.80255 1.82706 2.81686 0.99206 4.00427 0.498251C5.19168 0.00444124 6.49896 -0.126001 7.76062 0.123417C9.02228 0.372835 10.1816 0.990901 11.0919 1.89951C12.002 2.80798 12.6223 3.96613 12.8741 5.22727C13.1259 6.48841 12.9979 7.79596 12.5063 8.9844C12.0146 10.1727 11.1816 11.1886 10.1125 11.9033C9.04329 12.6182 7.78614 12.9996 6.50012 12.9996C5.64488 13.0094 4.79621 12.8484 4.00401 12.5259C3.2118 12.2035 2.4919 11.7262 1.8866 11.1219C1.28129 10.5178 0.802561 9.79878 0.47864 9.00708C0.154718 8.21552 -0.00795073 7.36724 0.000298761 6.512ZM9.32402 6.512C9.30959 5.95684 9.13184 5.41817 8.81294 4.96355C8.49405 4.5088 8.04819 4.15832 7.53105 3.95569C7.01404 3.75306 6.44869 3.70756 5.90577 3.8246C5.36286 3.94164 4.86659 4.21619 4.47887 4.61385C4.09127 5.0115 3.82948 5.51471 3.72623 6.06047C3.62311 6.6061 3.68318 7.17016 3.89882 7.68188C4.1146 8.19361 4.47642 8.63045 4.93904 8.93761C5.40178 9.24478 5.9447 9.40873 6.50012 9.40886C6.87805 9.41608 7.2534 9.34544 7.60285 9.20108C7.95216 9.05671 8.26809 8.84197 8.53079 8.57012C8.79348 8.2984 8.99727 7.97525 9.12965 7.62117C9.2619 7.26709 9.31977 6.88942 9.29967 6.512H9.32402Z" fill="#667085"/>
</svg>
