<svg width="13" height="17" viewBox="0 0 13 17" fill="none" xmlns="http://www.w3.org/2000/svg">
<path d="M12.7344 0.328182V11.4086C12.7344 15.3296 9.6694 16.9836 6.56969 16.9836C5.4797 17.0647 4.38837 16.8442 3.41523 16.3464C2.44209 15.8487 1.62475 15.0927 1.05263 14.1614L4.03671 12.4381C4.27348 12.9153 4.64816 13.3105 5.11213 13.5724C5.5761 13.8343 6.10805 13.9509 6.63914 13.9069C6.98846 13.9652 7.34661 13.9424 7.68589 13.8403C8.02517 13.7382 8.3364 13.5597 8.5957 13.3182C8.85488 13.0768 9.05526 12.7791 9.1813 12.448C9.30733 12.1169 9.35559 11.7614 9.3224 11.4086V10.3329C8.91453 10.8349 8.39397 11.2336 7.80323 11.4968C7.21249 11.76 6.56797 11.8804 5.92199 11.8482C4.35138 11.8482 2.84519 11.2243 1.7345 10.1137C0.623934 9.00313 0 7.49682 0 5.9262C0 4.35559 0.623934 2.8494 1.7345 1.73883C2.84519 0.628267 4.35138 0.00433286 5.92199 0.00433286C6.56761 -0.0251858 7.21114 0.0964431 7.80151 0.359417C8.39189 0.622513 8.91269 1.01973 9.3224 1.51946V0.362846L12.7344 0.328182ZM9.3224 5.9262C9.34555 5.36376 9.19979 4.80719 8.90412 4.32803C8.60832 3.84899 8.17607 3.46929 7.66286 3.23792C7.14965 3.00642 6.57887 2.93379 6.02402 3.02933C5.46917 3.12474 4.95559 3.38404 4.54931 3.77366C4.14291 4.16341 3.86242 4.66572 3.74385 5.21604C3.62517 5.76636 3.67391 6.33971 3.88373 6.8621C4.09355 7.38462 4.45475 7.8323 4.92105 8.14782C5.38735 8.46347 5.9373 8.63225 6.50024 8.63274C6.86781 8.65871 7.23662 8.60751 7.583 8.4822C7.92951 8.3569 8.24588 8.16056 8.5118 7.90555C8.77759 7.65054 8.98716 7.34261 9.12679 7.00174C9.26642 6.66087 9.33305 6.29451 9.3224 5.9262Z" fill="#667085"/>
</svg>
