<svg width="12" height="12" viewBox="0 0 12 12" fill="none" xmlns="http://www.w3.org/2000/svg">
<path d="M11.1584 0V11.6556H7.68939V10.5687C7.28592 11.0516 6.77383 11.4322 6.19501 11.6794C5.61631 11.9267 4.98715 12.0333 4.35923 11.9909C2.04663 11.9909 0 10.3142 0 7.15758V0H3.46889V6.64881C3.4384 6.93216 3.47147 7.21869 3.56551 7.48771C3.65955 7.75674 3.81224 8.00139 4.0127 8.20405C4.21302 8.4067 4.45609 8.56209 4.72401 8.65907C4.99193 8.75617 5.27822 8.79218 5.56181 8.76487C6.83382 8.76487 7.72416 8.02478 7.72416 6.37133V0H11.1584Z" fill="#667085"/>
</svg>
