<svg width="18" height="12" viewBox="0 0 18 12" fill="none" xmlns="http://www.w3.org/2000/svg">
<path d="M17.4161 4.84843V12H13.9443V5.1494C13.9443 3.9922 13.3773 3.22836 12.2664 3.22836C11.1555 3.22836 10.438 4.05004 10.438 5.42709V12H6.9664V5.1494C6.9664 3.9922 6.4109 3.22836 5.28837 3.22836C4.16597 3.22836 3.47162 4.05004 3.47162 5.42709V12H0V0.33541H3.47162V1.41161C3.83448 0.936257 4.31033 0.559181 4.85603 0.314701C5.40173 0.0700983 5.99988 -0.0341905 6.59607 0.0113969C7.19483 -0.0177692 7.79102 0.108821 8.3263 0.378423C8.86171 0.648148 9.31807 1.05194 9.65115 1.55046C10.0384 1.02927 10.5515 0.614695 11.1424 0.345583C11.7333 0.0764706 12.3828 -0.0386021 13.0301 0.0113969C15.6687 0.0113969 17.4161 1.93232 17.4161 4.84843Z" fill="#667085"/>
</svg>
