<svg width="13" height="17" viewBox="0 0 13 17" fill="none" xmlns="http://www.w3.org/2000/svg">
<path d="M12.7402 6.27509C12.783 7.06038 12.6701 7.84641 12.408 8.58789C12.1458 9.32937 11.7397 10.0117 11.2128 10.5955C10.6858 11.1794 10.0487 11.6533 9.33792 11.9899C8.62715 12.3265 7.85684 12.5192 7.07131 12.5569C6.41183 12.5884 5.75335 12.4751 5.14254 12.2246C4.53161 11.9742 3.98308 11.5927 3.53565 11.1072V17H0V0.335161H3.53565V1.45481C3.98308 0.969307 4.53161 0.587895 5.14254 0.337408C5.75335 0.0869205 6.41183 -0.0264054 7.07131 0.00517071C7.85584 0.0428624 8.62515 0.235189 9.33505 0.571045C10.0451 0.907025 10.6817 1.3798 11.2084 1.9624C11.7352 2.54499 12.1416 3.22581 12.4044 3.96592C12.6674 4.70602 12.7815 5.49081 12.7402 6.27509ZM9.20451 6.27509C9.19053 5.72195 9.01455 5.18503 8.69841 4.73086C8.38228 4.27681 7.93996 3.92523 7.42613 3.72005C6.9123 3.51474 6.34942 3.46469 5.80751 3.57615C5.26547 3.68748 4.76799 3.95543 4.37672 4.3467C3.98545 4.73797 3.71762 5.23533 3.60617 5.77736C3.49484 6.3194 3.54489 6.88216 3.75007 7.39599C3.95538 7.90982 4.30683 8.35225 4.761 8.66826C5.21518 8.9844 5.7521 9.16038 6.30524 9.17436C6.69127 9.19895 7.07805 9.14054 7.43974 9.00325C7.8013 8.86584 8.1293 8.65267 8.40175 8.37809C8.67408 8.10339 8.88462 7.77365 9.01904 7.41096C9.15333 7.04827 9.20862 6.661 9.18092 6.27509H9.20451Z" fill="#667085"/>
</svg>
